<?xml version="1.0"?>
<svg xmlns="http://www.w3.org/2000/svg" xmlns:xlink="http://www.w3.org/1999/xlink" width="960" height="893" overflow="hidden"><defs><clipPath id="clip0"><rect x="0" y="0" width="960" height="893"/></clipPath><clipPath id="clip1"><rect x="360" y="65" width="586" height="824"/></clipPath><clipPath id="clip2"><rect x="360" y="65" width="586" height="824"/></clipPath><clipPath id="clip3"><rect x="394" y="81" width="517" height="721"/></clipPath><clipPath id="clip4"><rect x="394" y="81" width="517" height="721"/></clipPath><clipPath id="clip5"><rect x="394" y="81" width="517" height="721"/></clipPath><clipPath id="clip6"><rect x="394" y="81" width="517" height="721"/></clipPath><clipPath id="clip7"><rect x="394" y="81" width="517" height="721"/></clipPath><clipPath id="clip8"><rect x="394" y="81" width="517" height="721"/></clipPath><clipPath id="clip9"><rect x="394" y="81" width="516" height="721"/></clipPath><clipPath id="clip10"><rect x="394" y="81" width="516" height="721"/></clipPath><clipPath id="clip11"><rect x="394" y="81" width="516" height="721"/></clipPath><clipPath id="clip12"><rect x="394" y="81" width="516" height="721"/></clipPath><clipPath id="clip13"><rect x="394" y="81" width="516" height="721"/></clipPath><clipPath id="clip14"><rect x="394" y="81" width="516" height="721"/></clipPath><clipPath id="clip15"><rect x="394" y="81" width="516" height="721"/></clipPath><clipPath id="clip16"><rect x="394" y="81" width="516" height="721"/></clipPath><clipPath id="clip17"><rect x="394" y="81" width="516" height="721"/></clipPath><clipPath id="clip18"><rect x="394" y="81" width="516" height="721"/></clipPath><clipPath id="clip19"><rect x="394" y="81" width="516" height="721"/></clipPath><clipPath id="clip20"><rect x="394" y="81" width="516" height="721"/></clipPath><clipPath id="clip21"><rect x="360" y="65" width="586" height="824"/></clipPath><clipPath id="clip22"><rect x="360" y="65" width="586" height="824"/></clipPath><clipPath id="clip23"><rect x="360" y="65" width="586" height="824"/></clipPath><clipPath id="clip24"><rect x="360" y="65" width="586" height="824"/></clipPath><clipPath id="clip25"><rect x="360" y="65" width="586" height="824"/></clipPath><clipPath id="clip26"><rect x="360" y="65" width="586" height="824"/></clipPath><clipPath id="clip27"><rect x="360" y="65" width="586" height="824"/></clipPath><clipPath id="clip28"><rect x="360" y="65" width="586" height="824"/></clipPath><clipPath id="clip29"><rect x="360" y="65" width="586" height="824"/></clipPath><clipPath id="clip30"><rect x="106" y="-63" width="854" height="348"/></clipPath><clipPath id="clip31"><rect x="106" y="-3" width="854" height="348"/></clipPath><clipPath id="clip32"><rect x="106" y="57" width="854" height="348"/></clipPath><clipPath id="clip33"><rect x="106" y="116" width="854" height="349"/></clipPath><clipPath id="clip34"><rect x="106" y="176" width="854" height="349"/></clipPath><clipPath id="clip35"><rect x="106" y="236" width="854" height="348"/></clipPath><clipPath id="clip36"><rect x="106" y="296" width="854" height="348"/></clipPath><clipPath id="clip37"><rect x="106" y="356" width="854" height="348"/></clipPath><clipPath id="clip38"><rect x="106" y="416" width="854" height="348"/></clipPath><clipPath id="clip39"><rect x="106" y="476" width="854" height="348"/></clipPath><clipPath id="clip40"><rect x="106" y="536" width="854" height="348"/></clipPath><clipPath id="clip41"><rect x="106" y="596" width="854" height="348"/></clipPath></defs><g clip-path="url(#clip0)"><rect x="0" y="0" width="960" height="893" fill="#FFFFFF"/><rect x="0" y="0" width="960" height="893" fill="#FFFFFF"/><rect x="0" y="0" width="960" height="605" fill="#FFFFFF"/><g clip-path="url(#clip1)"><path d="M414.5 81.5001 414.5 801.5M435.5 81.5001 435.5 801.5M456.5 81.5001 456.5 801.5M476.5 81.5001 476.5 801.5M518.5 81.5001 518.5 801.5M538.5 81.5001 538.5 801.5M559.5 81.5001 559.5 801.5M579.5 81.5001 579.5 801.5M621.5 81.5001 621.5 801.5M641.5 81.5001 641.5 801.5M662.5 81.5001 662.5 801.5M683.5 81.5001 683.5 801.5M724.5 81.5001 724.5 801.5M744.5 81.5001 744.5 801.5M765.5 81.5001 765.5 801.5M786.5 81.5001 786.5 801.5M827.5 81.5001 827.5 801.5M848.5 81.5001 848.5 801.5M868.5 81.5001 868.5 801.5M889.5 81.5001 889.5 801.5" stroke="#F2F2F2" stroke-linejoin="round" stroke-miterlimit="10" fill="none"/></g><g clip-path="url(#clip2)"><path d="M394.5 81.5001 394.5 801.5M497.5 81.5001 497.5 801.5M703.5 81.5001 703.5 801.5M806.5 81.5001 806.5 801.5M910.5 81.5001 910.5 801.5" stroke="#D9D9D9" stroke-linejoin="round" stroke-miterlimit="10" fill="none"/></g><g clip-path="url(#clip3)"><rect x="572" y="337" width="29" height="30" fill="#558BB8"/></g><g clip-path="url(#clip4)"><rect x="501" y="457" width="100" height="30" fill="#558BB8"/></g><g clip-path="url(#clip5)"><rect x="587" y="517" width="14" height="30" fill="#558BB8"/></g><g clip-path="url(#clip6)"><rect x="597" y="577" width="4" height="30" fill="#558BB8"/></g><g clip-path="url(#clip7)"><rect x="584" y="697" width="17" height="30" fill="#558BB8"/></g><g clip-path="url(#clip8)"><path d="M763 97 601 97 601 127 763 127ZM706 157 601 157 601 187 706 187ZM619 217 601 217 601 247 619 247ZM621 277 601 277 601 307 621 307ZM646 397 601 397 601 427 646 427ZM619 637 601 637 601 667 619 667ZM605 757 601 757 601 787 605 787Z" fill="#B95B22"/></g><g clip-path="url(#clip9)"><path d="M763 112 708 112M763 112 857 112M708 109 708 115M857 109 857 115" stroke="#000000" stroke-width="4" stroke-linecap="round" stroke-linejoin="round" stroke-miterlimit="10" fill="none"/></g><g clip-path="url(#clip10)"><path d="M706 172 662 172M706 172 774 172M662 169 662 175M774 169 774 175" stroke="#000000" stroke-width="4" stroke-linecap="round" stroke-linejoin="round" stroke-miterlimit="10" fill="none"/></g><g clip-path="url(#clip11)"><path d="M619 232 610 232M619 232 632 232M610 229 610 235M632 229 632 235" stroke="#000000" stroke-width="4" stroke-linecap="round" stroke-linejoin="round" stroke-miterlimit="10" fill="none"/></g><g clip-path="url(#clip12)"><path d="M621 292 602 292M621 292 642 292M602 289 602 295M642 289 642 295" stroke="#000000" stroke-width="4" stroke-linecap="round" stroke-linejoin="round" stroke-miterlimit="10" fill="none"/></g><g clip-path="url(#clip13)"><path d="M572 352 539 352M572 352 602 352M539 349 539 355M602 349 602 355" stroke="#000000" stroke-width="4" stroke-linecap="round" stroke-linejoin="round" stroke-miterlimit="10" fill="none"/></g><g clip-path="url(#clip14)"><path d="M646 412 620 412M646 412 681 412M620 409 620 415M681 409 681 415" stroke="#000000" stroke-width="4" stroke-linecap="round" stroke-linejoin="round" stroke-miterlimit="10" fill="none"/></g><g clip-path="url(#clip15)"><path d="M501 472 409 472M501 472 578 472M409 469 409 475M578 469 578 475" stroke="#000000" stroke-width="4" stroke-linecap="round" stroke-linejoin="round" stroke-miterlimit="10" fill="none"/></g><g clip-path="url(#clip16)"><path d="M587 532 569 532M587 532 602 532M569 529 569 535M602 529 602 535" stroke="#000000" stroke-width="4" stroke-linecap="round" stroke-linejoin="round" stroke-miterlimit="10" fill="none"/></g><g clip-path="url(#clip17)"><path d="M597 592 596 592M597 592 598 592M596 589 596 595M598 589 598 595" stroke="#000000" stroke-width="4" stroke-linecap="round" stroke-linejoin="round" stroke-miterlimit="10" fill="none"/></g><g clip-path="url(#clip18)"><path d="M619 652 587 652M619 652 653 652M587 649 587 655M653 649 653 655" stroke="#000000" stroke-width="4" stroke-linecap="round" stroke-linejoin="round" stroke-miterlimit="10" fill="none"/></g><g clip-path="url(#clip19)"><path d="M584 712 572 712M584 712 592 712M572 709 572 715M592 709 592 715" stroke="#000000" stroke-width="4" stroke-linecap="round" stroke-linejoin="round" stroke-miterlimit="10" fill="none"/></g><g clip-path="url(#clip20)"><path d="M605 772 602 772M605 772 609 772M602 769 602 775M609 769 609 775" stroke="#000000" stroke-width="4" stroke-linecap="round" stroke-linejoin="round" stroke-miterlimit="10" fill="none"/></g><g clip-path="url(#clip21)"><path d="M394.5 801.5 910.5 801.5" stroke="#000000" stroke-linejoin="round" stroke-miterlimit="10" fill="none" fill-rule="evenodd"/></g><g clip-path="url(#clip22)"><path d="M394.5 801.5 394.5 814.5M497.5 801.5 497.5 814.5M600.5 801.5 600.5 814.5M703.5 801.5 703.5 814.5M806.5 801.5 806.5 814.5M910.5 801.5 910.5 814.5" stroke="#000000" stroke-linejoin="round" stroke-miterlimit="10" fill="none"/></g><g clip-path="url(#clip23)"><path d="M600.5 81.5001 600.5 801.5" stroke="#000000" stroke-width="1.33333" stroke-linejoin="round" stroke-miterlimit="10" fill="none" fill-rule="evenodd"/></g><g clip-path="url(#clip24)"><switch><text font-family="Liberation Sans,sans-serif" font-weight="normal" font-size="41" transform="translate(375.853 864)" id="trsvg23-id" systemLanguage="id"><tspan id="trsvg1-id">-1</tspan></text><text font-family="Liberation Sans,sans-serif" font-weight="normal" font-size="41" transform="translate(375.853 864)" id="trsvg23-bn" systemLanguage="bn"><tspan id="trsvg1-bn">-&#x9E7;</tspan></text><text font-family="Liberation Sans,sans-serif" font-weight="normal" font-size="41" transform="translate(375.853 864)" id="trsvg23-ms" systemLanguage="ms"><tspan id="trsvg1-ms">-1</tspan></text><text font-family="Liberation Sans,sans-serif" font-weight="400" font-size="41" transform="translate(375.853 864)" id="trsvg23"><tspan id="trsvg1">-1</tspan></text></switch></g><g clip-path="url(#clip25)"><switch><text font-family="Liberation Sans,sans-serif" font-weight="normal" font-size="41" transform="translate(461.782 864)" id="trsvg24-id" systemLanguage="id"><tspan id="trsvg2-id">-0,5</tspan></text><text font-family="Liberation Sans,sans-serif" font-weight="normal" font-size="41" transform="translate(461.782 864)" id="trsvg24-bn" systemLanguage="bn"><tspan id="trsvg2-bn">-&#x9E6;.&#x9EB;</tspan></text><text font-family="Liberation Sans,sans-serif" font-weight="normal" font-size="41" transform="translate(461.782 864)" id="trsvg24-ms" systemLanguage="ms"><tspan id="trsvg2-ms">-0.5</tspan></text><text font-family="Liberation Sans,sans-serif" font-weight="400" font-size="41" transform="translate(461.782 864)" id="trsvg24"><tspan id="trsvg2">-0.5</tspan></text></switch></g><g clip-path="url(#clip26)"><switch><text font-family="Liberation Sans,sans-serif" font-weight="normal" font-size="41" transform="translate(589.068 864)" id="trsvg25-bn" systemLanguage="bn"><tspan id="trsvg3-bn">&#x9E6;</tspan></text><text font-family="Liberation Sans,sans-serif" font-weight="400" font-size="41" transform="translate(589.068 864)" id="trsvg25"><tspan id="trsvg3">0</tspan></text></switch></g><g clip-path="url(#clip27)"><switch><text font-family="Liberation Sans,sans-serif" font-weight="normal" font-size="41" transform="translate(674.997 864)" id="trsvg26-id" systemLanguage="id"><tspan id="trsvg4-id">0,5</tspan></text><text font-family="Liberation Sans,sans-serif" font-weight="normal" font-size="41" transform="translate(674.997 864)" id="trsvg26-bn" systemLanguage="bn"><tspan id="trsvg4-bn">&#x9E6;.&#x9EB;</tspan></text><text font-family="Liberation Sans,sans-serif" font-weight="normal" font-size="41" transform="translate(674.997 864)" id="trsvg26-ms" systemLanguage="ms"><tspan id="trsvg4-ms">0.5</tspan></text><text font-family="Liberation Sans,sans-serif" font-weight="400" font-size="41" transform="translate(674.997 864)" id="trsvg26"><tspan id="trsvg4">0.5</tspan></text></switch></g><g clip-path="url(#clip28)"><switch><text font-family="Liberation Sans,sans-serif" font-weight="normal" font-size="41" transform="translate(795.4 864)" id="trsvg27-id" systemLanguage="id"><tspan id="trsvg5-id">1</tspan></text><text font-family="Liberation Sans,sans-serif" font-weight="normal" font-size="41" transform="translate(795.4 864)" id="trsvg27-bn" systemLanguage="bn"><tspan id="trsvg5-bn">&#x9E7;</tspan></text><text font-family="Liberation Sans,sans-serif" font-weight="normal" font-size="41" transform="translate(795.4 864)" id="trsvg27-ms" systemLanguage="ms"><tspan id="trsvg5-ms">1</tspan></text><text font-family="Liberation Sans,sans-serif" font-weight="400" font-size="41" transform="translate(795.4 864)" id="trsvg27"><tspan id="trsvg5">1</tspan></text></switch></g><g clip-path="url(#clip29)"><switch><text font-family="Liberation Sans,sans-serif" font-weight="normal" font-size="41" transform="translate(881.329 864)" id="trsvg28-id" systemLanguage="id"><tspan id="trsvg6-id">1,5</tspan></text><text font-family="Liberation Sans,sans-serif" font-weight="normal" font-size="41" transform="translate(881.329 864)" id="trsvg28-bn" systemLanguage="bn"><tspan id="trsvg6-bn">&#x9E7;.&#x9EB;</tspan></text><text font-family="Liberation Sans,sans-serif" font-weight="normal" font-size="41" transform="translate(881.329 864)" id="trsvg28-ms" systemLanguage="ms"><tspan id="trsvg6-ms">1.5</tspan></text><text font-family="Liberation Sans,sans-serif" font-weight="400" font-size="41" transform="translate(881.329 864)" id="trsvg28"><tspan id="trsvg6">1.5</tspan></text></switch></g><switch><text font-family="Liberation Sans,sans-serif" font-weight="normal" font-size="41" transform="translate(166.383 51)" id="trsvg29-ja" systemLanguage="ja"><tspan id="trsvg7-ja">&#x6C17;&#x5019;&#x5909;&#x5316;&#x306E;&#x7269;&#x7406;&#x7684;&#x8981;&#x56E0;</tspan><tspan font-size="41" x="-144.453" y="812" id="trsvg8-ja">&#x8981;&#x56E0;&#x306E;&#x5BC4;&#x4E0E; [&#xB0;C]</tspan></text><text font-family="Liberation Sans,sans-serif" font-weight="normal" font-size="41" transform="translate(166.383 51)" id="trsvg29-id" systemLanguage="id"><tspan id="trsvg7-id">Pendorong fisik perubahan iklim</tspan><tspan font-size="41" x="-144.453" y="812" id="trsvg8-id">Kontribusi (&#xB0;C)</tspan></text><text font-family="Liberation Sans,sans-serif" font-weight="normal" font-size="41" transform="translate(166.383 51)" id="trsvg29-eu" systemLanguage="eu"><tspan id="trsvg7-eu">Klima aldaketaren eragile fisikoak</tspan><tspan font-size="41" x="-144.453" y="812" id="trsvg8-eu">Eragina &#xBA;C-tan</tspan></text><text font-family="Liberation Sans,sans-serif" font-weight="normal" font-size="41" transform="translate(166.383 51)" id="trsvg29-bn" systemLanguage="bn"><tspan id="trsvg7-bn">&#x99C;&#x9B2;&#x9AC;&#x9BE;&#x9AF;&#x9BC;&#x9C1; &#x9AA;&#x9B0;&#x9BF;&#x9AC;&#x9B0;&#x9CD;&#x9A4;&#x9A8;&#x9C7;&#x9B0; &#x99C;&#x9A8;&#x9CD;&#x9AF; &#x9A6;&#x9BE;&#x9DF;&#x9C0; &#x9AD;&#x9CC;&#x9A4; &#x99A;&#x9BE;&#x9B2;&#x995;</tspan><tspan font-size="41" x="-144.453" y="812" id="trsvg8-bn">&#xB0;&#x9B8;&#x9C7;-&#x98F; &#x985;&#x9AC;&#x9A6;&#x9BE;&#x9A8;</tspan></text><text font-family="Liberation Sans,sans-serif" font-weight="normal" font-size="41" transform="translate(166.383 51)" id="trsvg29-ms" systemLanguage="ms"><tspan id="trsvg7-ms">Pemacu fizikal perubahan iklim</tspan><tspan font-size="41" x="-144.453" y="812" id="trsvg8-ms">Sumbangan &#xB0;C</tspan></text><text font-family="Liberation Sans,sans-serif" font-weight="normal" font-size="41" transform="translate(166.383 51)" id="trsvg29-tl" systemLanguage="tl"><tspan id="trsvg7-tl">Mga tagatulak ng pagbabago ng klima</tspan><tspan font-size="41" x="-144.453" y="812" id="trsvg8-tl">Ambag sa &#xB0;C</tspan></text><text font-family="Liberation Sans,sans-serif" font-weight="400" font-size="41" transform="translate(166.383 51)" id="trsvg29"><tspan id="trsvg7">Physical drivers of climate change</tspan><tspan font-size="41" x="-144.453" y="812" id="trsvg8">Contribution in &#xB0;C</tspan></text></switch><switch><text font-family="Liberation Sans,sans-serif" font-weight="normal" font-size="41" transform="matrix(-1.83697e-16 -1 1 -1.83697e-16 55.9686 436)" id="trsvg30-ja" systemLanguage="ja"><tspan id="trsvg9-ja">&#x6E29;&#x5BA4;&#x52B9;&#x679C;&#x30AC;&#x30B9;</tspan><tspan font-size="41" x="-210" y="-0.000102997" id="trsvg10-ja">&#x30A8;&#x30A2;&#x30ED;&#x30BE;&#x30EB;</tspan></text><text font-family="Liberation Sans,sans-serif" font-weight="normal" font-size="41" transform="matrix(-1.83697e-16 -1 1 -1.83697e-16 55.9686 436)" id="trsvg30-id" systemLanguage="id"><tspan id="trsvg9-id">Gas rumah kaca</tspan><tspan font-size="41" x="-210" y="-0.000102997" id="trsvg10-id">Aerosol</tspan></text><text font-family="Liberation Sans,sans-serif" font-weight="normal" font-size="41" transform="matrix(-1.83697e-16 -1 1 -1.83697e-16 55.9686 436)" id="trsvg30-eu" systemLanguage="eu"><tspan id="trsvg9-eu">Berotegi-gasak</tspan><tspan font-size="41" x="-210" y="-0.000102997" id="trsvg10-eu">Aerosolak</tspan></text><text font-family="Liberation Sans,sans-serif" font-weight="normal" font-size="41" transform="matrix(-1.83697e-16 -1 1 -1.83697e-16 55.9686 436)" id="trsvg30-bn" systemLanguage="bn"><tspan id="trsvg9-bn">&#x997;&#x9CD;&#x9B0;&#x9BF;&#x9A8;&#x9B9;&#x9BE;&#x989;&#x99C; &#x997;&#x9CD;&#x9AF;&#x9BE;&#x9B8;</tspan><tspan font-size="41" x="-210" y="-0.000102997" id="trsvg10-bn">&#x985;&#x9CD;&#x9AF;&#x9BE;&#x9B0;&#x9CB;&#x9B8;&#x9B2;</tspan></text><text font-family="Liberation Sans,sans-serif" font-weight="normal" font-size="41" transform="matrix(-1.83697e-16 -1 1 -1.83697e-16 55.9686 436)" id="trsvg30-ms" systemLanguage="ms"><tspan id="trsvg9-ms">Gas rumah hijau</tspan><tspan font-size="41" x="-210" y="-0.000102997" id="trsvg10-ms">Aerosol</tspan></text><text font-family="Liberation Sans,sans-serif" font-weight="normal" font-size="41" transform="matrix(-1.83697e-16 -1 1 -1.83697e-16 55.9686 436)" id="trsvg30-tl" systemLanguage="tl"><tspan id="trsvg9-tl">Gas na greenhouse</tspan><tspan font-size="41" x="-210" y="-0.000102997" id="trsvg10-tl">Erosol</tspan></text><text font-family="Liberation Sans,sans-serif" font-weight="400" font-size="41" transform="matrix(-1.83697e-16 -1 1 -1.83697e-16 55.9686 436)" id="trsvg30"><tspan id="trsvg9">Greenhouse gases</tspan><tspan font-size="41" x="-210" y="-0.000102997" id="trsvg10">Aerosols</tspan></text></switch><path d="M101.5 435.5C93.4919 435.5 87.0001 430.051 87.0001 423.328L87.0001 274.672C87.0001 267.949 80.5082 262.5 72.5001 262.5 80.5082 262.5 87.0001 257.051 87.0001 250.328L87.0001 101.672C87.0001 94.9495 93.4919 89.5001 101.5 89.5001" stroke="#000000" stroke-width="2.66667" stroke-linecap="round" stroke-miterlimit="8" fill="none" fill-rule="evenodd"/><path d="M101.5 673.5C93.4919 673.5 87.0001 668.448 87.0001 662.215L87.0001 572.285C87.0001 566.052 80.5082 561 72.5001 561 80.5082 561 87.0001 555.948 87.0001 549.715L87.0001 459.785C87.0001 453.552 93.4919 448.5 101.5 448.5" stroke="#000000" stroke-width="2.66667" stroke-linecap="round" stroke-miterlimit="8" fill="none" fill-rule="evenodd"/><rect x="289" y="693" width="199" height="108" fill="#FFFFFF"/><rect x="347" y="272" width="141" height="111" fill="#FFFFFF"/><g clip-path="url(#clip30)"><switch><text font-family="Liberation Sans,sans-serif" font-weight="normal" font-size="41" transform="translate(107.322 127)" id="trsvg31-ja" systemLanguage="ja"><tspan id="trsvg11-ja">&#x4E8C;&#x9178;&#x5316;&#x70AD;&#x7D20;</tspan></text><text font-family="Liberation Sans,sans-serif" font-weight="normal" font-size="41" transform="translate(107.322 127)" id="trsvg31-id" systemLanguage="id"><tspan id="trsvg11-id">Karbon dioksida</tspan></text><text font-family="Liberation Sans,sans-serif" font-weight="normal" font-size="41" transform="translate(107.322 127)" id="trsvg31-eu" systemLanguage="eu"><tspan id="trsvg11-eu">Karbono dioxidoa</tspan></text><text font-family="Liberation Sans,sans-serif" font-weight="normal" font-size="41" transform="translate(107.322 127)" id="trsvg31-bn" systemLanguage="bn"><tspan id="trsvg11-bn">&#x995;&#x9BE;&#x9B0;&#x9CD;&#x9AC;&#x9A8;&#x9A1;&#x9BE;&#x987;&#x985;&#x995;&#x9CD;&#x9B8;&#x9BE;&#x987;&#x9A1;</tspan></text><text font-family="Liberation Sans,sans-serif" font-weight="normal" font-size="41" transform="translate(107.322 127)" id="trsvg31-ms" systemLanguage="ms"><tspan id="trsvg11-ms">Karbon dioksida</tspan></text><text font-family="Liberation Sans,sans-serif" font-weight="normal" font-size="41" transform="translate(107.322 127)" id="trsvg31-tl" systemLanguage="tl"><tspan id="trsvg11-tl">Dioksidong karbon</tspan></text><text font-family="Liberation Sans,sans-serif" font-weight="400" font-size="41" transform="translate(107.322 127)" id="trsvg31"><tspan id="trsvg11">Carbon dioxide</tspan></text></switch></g><g clip-path="url(#clip31)"><switch><text font-family="Liberation Sans,sans-serif" font-weight="normal" font-size="41" transform="translate(107.322 187)" id="trsvg32-ja" systemLanguage="ja"><tspan id="trsvg12-ja">&#x30E1;&#x30BF;&#x30F3;</tspan></text><text font-family="Liberation Sans,sans-serif" font-weight="normal" font-size="41" transform="translate(107.322 187)" id="trsvg32-id" systemLanguage="id"><tspan id="trsvg12-id">Metana</tspan></text><text font-family="Liberation Sans,sans-serif" font-weight="normal" font-size="41" transform="translate(107.322 187)" id="trsvg32-eu" systemLanguage="eu"><tspan id="trsvg12-eu">Metanoa</tspan></text><text font-family="Liberation Sans,sans-serif" font-weight="normal" font-size="41" transform="translate(107.322 187)" id="trsvg32-bn" systemLanguage="bn"><tspan id="trsvg12-bn">&#x9AE;&#x9BF;&#x9A5;&#x9C7;&#x9A8;</tspan></text><text font-family="Liberation Sans,sans-serif" font-weight="normal" font-size="41" transform="translate(107.322 187)" id="trsvg32-ms" systemLanguage="ms"><tspan id="trsvg12-ms">Metana</tspan></text><text font-family="Liberation Sans,sans-serif" font-weight="normal" font-size="41" transform="translate(107.322 187)" id="trsvg32-tl" systemLanguage="tl"><tspan id="trsvg12-tl">Metano</tspan></text><text font-family="Liberation Sans,sans-serif" font-weight="400" font-size="41" transform="translate(107.322 187)" id="trsvg32"><tspan id="trsvg12">Methane</tspan></text></switch></g><g clip-path="url(#clip32)"><switch><text font-family="Liberation Sans,sans-serif" font-weight="normal" font-size="41" transform="translate(107.322 247)" id="trsvg33-ja" systemLanguage="ja"><tspan id="trsvg13-ja">&#x4E9C;&#x9178;&#x5316;&#x7A92;&#x7D20;</tspan></text><text font-family="Liberation Sans,sans-serif" font-weight="normal" font-size="41" transform="translate(107.322 247)" id="trsvg33-id" systemLanguage="id"><tspan id="trsvg13-id">Dinitrogen monoksida</tspan></text><text font-family="Liberation Sans,sans-serif" font-weight="normal" font-size="41" transform="translate(107.322 247)" id="trsvg33-eu" systemLanguage="eu"><tspan id="trsvg13-eu">Oxido nitrosoa</tspan></text><text font-family="Liberation Sans,sans-serif" font-weight="normal" font-size="41" transform="translate(107.322 247)" id="trsvg33-bn" systemLanguage="bn"><tspan id="trsvg13-bn">&#x9A8;&#x9BE;&#x987;&#x99F;&#x9CD;&#x9B0;&#x9BE;&#x9B8; &#x985;&#x995;&#x9CD;&#x9B8;&#x9BE;&#x987;&#x9A1;</tspan></text><text font-family="Liberation Sans,sans-serif" font-weight="normal" font-size="41" transform="translate(107.322 247)" id="trsvg33-ms" systemLanguage="ms"><tspan id="trsvg13-ms">Nitrus oksida</tspan></text><text font-family="Liberation Sans,sans-serif" font-weight="normal" font-size="41" transform="translate(107.322 247)" id="trsvg33-tl" systemLanguage="tl"><tspan id="trsvg13-tl">Oksidong nitro</tspan></text><text font-family="Liberation Sans,sans-serif" font-weight="400" font-size="41" transform="translate(107.322 247)" id="trsvg33"><tspan id="trsvg13">Nitrous oxide</tspan></text></switch></g><g clip-path="url(#clip33)"><switch><text font-family="Liberation Sans,sans-serif" font-weight="normal" font-size="41" transform="translate(107.322 307)" id="trsvg34-ja" systemLanguage="ja"><tspan id="trsvg14-ja">&#x30CF;&#x30ED;&#x30B2;&#x30F3;&#x5316;&#x30AC;&#x30B9;</tspan></text><text font-family="Liberation Sans,sans-serif" font-weight="normal" font-size="41" transform="translate(107.322 307)" id="trsvg34-id" systemLanguage="id"><tspan id="trsvg14-id">Gas terhalogenasi</tspan></text><text font-family="Liberation Sans,sans-serif" font-weight="normal" font-size="41" transform="translate(107.322 307)" id="trsvg34-eu" systemLanguage="eu"><tspan id="trsvg14-eu">Gas halogenatuak</tspan></text><text font-family="Liberation Sans,sans-serif" font-weight="normal" font-size="41" transform="translate(107.322 307)" id="trsvg34-bn" systemLanguage="bn"><tspan id="trsvg14-bn">&#x9B9;&#x9CD;&#x9AF;&#x9BE;&#x9B2;&#x9CB;&#x99C;&#x9C7;&#x9A8;&#x9C7;&#x99F;&#x9C7;&#x99F; &#x997;&#x9CD;&#x9AF;&#x9BE;&#x9B8;</tspan></text><text font-family="Liberation Sans,sans-serif" font-weight="normal" font-size="41" transform="translate(107.322 307)" id="trsvg34-ms" systemLanguage="ms"><tspan id="trsvg14-ms">Gas-gas terhalogen</tspan></text><text font-family="Liberation Sans,sans-serif" font-weight="normal" font-size="41" transform="translate(107.322 307)" id="trsvg34-tl" systemLanguage="tl"><tspan id="trsvg14-tl">Halogen na gas</tspan></text><text font-family="Liberation Sans,sans-serif" font-weight="400" font-size="41" transform="translate(107.322 307)" id="trsvg34"><tspan id="trsvg14">Halogenated gases</tspan></text></switch></g><g clip-path="url(#clip34)"><switch><text font-family="Liberation Sans,sans-serif" font-weight="normal" font-size="41" transform="translate(107.322 367)" id="trsvg35-ja" systemLanguage="ja"><tspan id="trsvg15-ja">&#x7A92;&#x7D20;&#x9178;&#x5316;&#x7269;</tspan></text><text font-family="Liberation Sans,sans-serif" font-weight="normal" font-size="41" transform="translate(107.322 367)" id="trsvg35-id" systemLanguage="id"><tspan id="trsvg15-id">Nitrogen oksida</tspan></text><text font-family="Liberation Sans,sans-serif" font-weight="normal" font-size="41" transform="translate(107.322 367)" id="trsvg35-eu" systemLanguage="eu"><tspan id="trsvg15-eu">Nitrogeno oxidoak</tspan></text><text font-family="Liberation Sans,sans-serif" font-weight="normal" font-size="41" transform="translate(107.322 367)" id="trsvg35-bn" systemLanguage="bn"><tspan id="trsvg15-bn">&#x9A8;&#x9BE;&#x987;&#x99F;&#x9CD;&#x9B0;&#x9CB;&#x99C;&#x9C7;&#x9A8; &#x985;&#x995;&#x9CD;&#x9B8;&#x9BE;&#x987;&#x9A1;</tspan></text><text font-family="Liberation Sans,sans-serif" font-weight="normal" font-size="41" transform="translate(107.322 367)" id="trsvg35-ms" systemLanguage="ms"><tspan id="trsvg15-ms">Nitrogen oksida</tspan></text><text font-family="Liberation Sans,sans-serif" font-weight="normal" font-size="41" transform="translate(107.322 367)" id="trsvg35-tl" systemLanguage="tl"><tspan id="trsvg15-tl">Oksidong nitroheno</tspan></text><text font-family="Liberation Sans,sans-serif" font-weight="400" font-size="41" transform="translate(107.322 367)" id="trsvg35"><tspan id="trsvg15">Nitrogen oxides</tspan></text></switch></g><g clip-path="url(#clip35)"><switch><text font-family="Liberation Sans,sans-serif" font-weight="normal" font-size="41" transform="translate(107.322 427)" id="trsvg36-ja" systemLanguage="ja"><tspan id="trsvg16-ja">&#x305D;&#x306E;&#x4ED6;&#x306E;&#x30AC;&#x30B9;</tspan></text><text font-family="Liberation Sans,sans-serif" font-weight="normal" font-size="41" transform="translate(107.322 427)" id="trsvg36-id" systemLanguage="id"><tspan id="trsvg16-id">Gas-gas lain</tspan></text><text font-family="Liberation Sans,sans-serif" font-weight="normal" font-size="41" transform="translate(107.322 427)" id="trsvg36-eu" systemLanguage="eu"><tspan id="trsvg16-eu">Beste gas batzuk</tspan></text><text font-family="Liberation Sans,sans-serif" font-weight="normal" font-size="41" transform="translate(107.322 427)" id="trsvg36-bn" systemLanguage="bn"><tspan id="trsvg16-bn">&#x985;&#x9A8;&#x9CD;&#x9AF;&#x9BE;&#x9A8;&#x9CD;&#x9AF; &#x997;&#x9CD;&#x9AF;&#x9BE;&#x9B8;</tspan></text><text font-family="Liberation Sans,sans-serif" font-weight="normal" font-size="41" transform="translate(107.322 427)" id="trsvg36-ms" systemLanguage="ms"><tspan id="trsvg16-ms">Lain-lain gas</tspan></text><text font-family="Liberation Sans,sans-serif" font-weight="normal" font-size="41" transform="translate(107.322 427)" id="trsvg36-tl" systemLanguage="tl"><tspan id="trsvg16-tl">Ibang gas</tspan></text><text font-family="Liberation Sans,sans-serif" font-weight="400" font-size="41" transform="translate(107.322 427)" id="trsvg36"><tspan id="trsvg16">Other gases</tspan></text></switch></g><g clip-path="url(#clip36)"><switch><text font-family="Liberation Sans,sans-serif" font-weight="normal" font-size="41" transform="translate(107.322 486)" id="trsvg37-ja" systemLanguage="ja"><tspan id="trsvg17-ja">&#x4E8C;&#x9178;&#x5316;&#x786B;&#x9EC4;</tspan></text><text font-family="Liberation Sans,sans-serif" font-weight="normal" font-size="41" transform="translate(107.322 486)" id="trsvg37-id" systemLanguage="id"><tspan id="trsvg17-id">Belerang dioksida</tspan></text><text font-family="Liberation Sans,sans-serif" font-weight="normal" font-size="41" transform="translate(107.322 486)" id="trsvg37-eu" systemLanguage="eu"><tspan id="trsvg17-eu">Sulfuro dioxidoa</tspan></text><text font-family="Liberation Sans,sans-serif" font-weight="normal" font-size="41" transform="translate(107.322 486)" id="trsvg37-bn" systemLanguage="bn"><tspan id="trsvg17-bn">&#x9B8;&#x9BE;&#x9B2;&#x9AB;&#x9BE;&#x9B0;&#x9A1;&#x9BE;&#x987; &#x985;&#x995;&#x9CD;&#x9B8;&#x9BE;&#x987;&#x9A1;</tspan></text><text font-family="Liberation Sans,sans-serif" font-weight="normal" font-size="41" transform="translate(107.322 486)" id="trsvg37-ms" systemLanguage="ms"><tspan id="trsvg17-ms">Sulfur oksida</tspan></text><text font-family="Liberation Sans,sans-serif" font-weight="normal" font-size="41" transform="translate(107.322 486)" id="trsvg37-tl" systemLanguage="tl"><tspan id="trsvg17-tl">Dioksido sulpuro</tspan></text><text font-family="Liberation Sans,sans-serif" font-weight="400" font-size="41" transform="translate(107.322 486)" id="trsvg37"><tspan id="trsvg17">Sulphur dioxide</tspan></text></switch></g><g clip-path="url(#clip37)"><switch><text font-family="Liberation Sans,sans-serif" font-weight="normal" font-size="41" transform="translate(107.322 546)" id="trsvg38-ja" systemLanguage="ja"><tspan id="trsvg18-ja">&#x6709;&#x6A5F;&#x70AD;&#x7D20;</tspan></text><text font-family="Liberation Sans,sans-serif" font-weight="normal" font-size="41" transform="translate(107.322 546)" id="trsvg38-id" systemLanguage="id"><tspan id="trsvg18-id">Karbon organik</tspan></text><text font-family="Liberation Sans,sans-serif" font-weight="normal" font-size="41" transform="translate(107.322 546)" id="trsvg38-eu" systemLanguage="eu"><tspan id="trsvg18-eu">Karbono organikoa</tspan></text><text font-family="Liberation Sans,sans-serif" font-weight="normal" font-size="41" transform="translate(107.322 546)" id="trsvg38-bn" systemLanguage="bn"><tspan id="trsvg18-bn">&#x99C;&#x9C8;&#x9AC; &#x995;&#x9BE;&#x9B0;&#x9CD;&#x9AC;&#x9A8;</tspan></text><text font-family="Liberation Sans,sans-serif" font-weight="normal" font-size="41" transform="translate(107.322 546)" id="trsvg38-ms" systemLanguage="ms"><tspan id="trsvg18-ms">Karbon organik</tspan></text><text font-family="Liberation Sans,sans-serif" font-weight="normal" font-size="41" transform="translate(107.322 546)" id="trsvg38-tl" systemLanguage="tl"><tspan id="trsvg18-tl">Organikong karbon</tspan></text><text font-family="Liberation Sans,sans-serif" font-weight="400" font-size="41" transform="translate(107.322 546)" id="trsvg38"><tspan id="trsvg18">Organic carbon</tspan></text></switch></g><g clip-path="url(#clip38)"><switch><text font-family="Liberation Sans,sans-serif" font-weight="normal" font-size="41" transform="translate(107.322 606)" id="trsvg39-ja" systemLanguage="ja"><tspan id="trsvg19-ja">&#x30A2;&#x30F3;&#x30E2;&#x30CB;&#x30A2;</tspan></text><text font-family="Liberation Sans,sans-serif" font-weight="normal" font-size="41" transform="translate(107.322 606)" id="trsvg39-id" systemLanguage="id"><tspan id="trsvg19-id">Amonia</tspan></text><text font-family="Liberation Sans,sans-serif" font-weight="normal" font-size="41" transform="translate(107.322 606)" id="trsvg39-eu" systemLanguage="eu"><tspan id="trsvg19-eu">Amoniakoa</tspan></text><text font-family="Liberation Sans,sans-serif" font-weight="normal" font-size="41" transform="translate(107.322 606)" id="trsvg39-bn" systemLanguage="bn"><tspan id="trsvg19-bn">&#x985;&#x9CD;&#x9AF;&#x9BE;&#x9AE;&#x9CB;&#x9A8;&#x9BF;&#x9DF;&#x9BE;</tspan></text><text font-family="Liberation Sans,sans-serif" font-weight="normal" font-size="41" transform="translate(107.322 606)" id="trsvg39-ms" systemLanguage="ms"><tspan id="trsvg19-ms">Amonia</tspan></text><text font-family="Liberation Sans,sans-serif" font-weight="normal" font-size="41" transform="translate(107.322 606)" id="trsvg39-tl" systemLanguage="tl"><tspan id="trsvg19-tl">Amonya</tspan></text><text font-family="Liberation Sans,sans-serif" font-weight="400" font-size="41" transform="translate(107.322 606)" id="trsvg39"><tspan id="trsvg19">Ammonia</tspan></text></switch></g><g clip-path="url(#clip39)"><switch><text font-family="Liberation Sans,sans-serif" font-weight="normal" font-size="41" transform="translate(107.322 666)" id="trsvg40-ja" systemLanguage="ja"><tspan id="trsvg20-ja">&#x30D6;&#x30E9;&#x30C3;&#x30AF;&#x30AB;&#x30FC;&#x30DC;&#x30F3;</tspan></text><text font-family="Liberation Sans,sans-serif" font-weight="normal" font-size="41" transform="translate(107.322 666)" id="trsvg40-id" systemLanguage="id"><tspan id="trsvg20-id">Karbon hitam</tspan></text><text font-family="Liberation Sans,sans-serif" font-weight="normal" font-size="41" transform="translate(107.322 666)" id="trsvg40-eu" systemLanguage="eu"><tspan id="trsvg20-eu">Karbono beltza</tspan></text><text font-family="Liberation Sans,sans-serif" font-weight="normal" font-size="41" transform="translate(107.322 666)" id="trsvg40-bn" systemLanguage="bn"><tspan id="trsvg20-bn">&#x995;&#x9BE;&#x9B2;&#x9CB; &#x995;&#x9BE;&#x9B0;&#x9CD;&#x9AC;&#x9A8;</tspan></text><text font-family="Liberation Sans,sans-serif" font-weight="normal" font-size="41" transform="translate(107.322 666)" id="trsvg40-ms" systemLanguage="ms"><tspan id="trsvg20-ms">Karbon hitam</tspan></text><text font-family="Liberation Sans,sans-serif" font-weight="normal" font-size="41" transform="translate(107.322 666)" id="trsvg40-tl" systemLanguage="tl"><tspan id="trsvg20-tl">Itim na karbon</tspan></text><text font-family="Liberation Sans,sans-serif" font-weight="400" font-size="41" transform="translate(107.322 666)" id="trsvg40"><tspan id="trsvg20">Black carbon</tspan></text></switch></g><g clip-path="url(#clip40)"><switch><text font-family="Liberation Sans,sans-serif" font-weight="normal" font-size="41" transform="translate(107.322 726)" id="trsvg41-ja" systemLanguage="ja"><tspan id="trsvg21-ja">&#x571F;&#x5730;&#x5229;&#x7528;&#x306E;&#x5909;&#x5316;</tspan></text><text font-family="Liberation Sans,sans-serif" font-weight="normal" font-size="41" transform="translate(107.322 726)" id="trsvg41-id" systemLanguage="id"><tspan id="trsvg21-id">Penggunaan lahan</tspan></text><text font-family="Liberation Sans,sans-serif" font-weight="normal" font-size="41" transform="translate(107.322 726)" id="trsvg41-eu" systemLanguage="eu"><tspan id="trsvg21-eu">Lurzuroaren erabilera</tspan></text><text font-family="Liberation Sans,sans-serif" font-weight="normal" font-size="41" transform="translate(107.322 726)" id="trsvg41-bn" systemLanguage="bn"><tspan id="trsvg21-bn">&#x9AD;&#x9C2;&#x9AE;&#x9BF;-&#x9AC;&#x9CD;&#x9AF;&#x9AC;&#x9B9;&#x9BE;&#x9B0; &#x9AA;&#x9B0;&#x9BF;&#x9AC;&#x9B0;&#x9CD;&#x9A4;&#x9A8;</tspan></text><text font-family="Liberation Sans,sans-serif" font-weight="normal" font-size="41" transform="translate(107.322 726)" id="trsvg41-ms" systemLanguage="ms"><tspan id="trsvg21-ms">Pengairan dan albedo</tspan></text><text font-family="Liberation Sans,sans-serif" font-weight="normal" font-size="41" transform="translate(107.322 726)" id="trsvg41-tl" systemLanguage="tl"><tspan id="trsvg21-tl">Irigasyon at albedo</tspan></text><text font-family="Liberation Sans,sans-serif" font-weight="400" font-size="41" transform="translate(107.322 726)" id="trsvg41"><tspan id="trsvg21">Irrigation and albedo</tspan></text></switch></g><g clip-path="url(#clip41)"><switch><text font-family="Liberation Sans,sans-serif" font-weight="normal" font-size="41" transform="translate(107.322 786)" id="trsvg42-ja" systemLanguage="ja"><tspan id="trsvg22-ja">&#x822A;&#x7A7A;&#x6A5F;&#x306E;&#x98DB;&#x884C;&#x6A5F;&#x96F2;</tspan></text><text font-family="Liberation Sans,sans-serif" font-weight="normal" font-size="41" transform="translate(107.322 786)" id="trsvg42-id" systemLanguage="id"><tspan id="trsvg22-id">Jejak kondensasi</tspan></text><text font-family="Liberation Sans,sans-serif" font-weight="normal" font-size="41" transform="translate(107.322 786)" id="trsvg42-eu" systemLanguage="eu"><tspan id="trsvg22-eu">Hegazkinen markak</tspan></text><text font-family="Liberation Sans,sans-serif" font-weight="normal" font-size="41" transform="translate(107.322 786)" id="trsvg42-ms" systemLanguage="ms"><tspan id="trsvg22-ms">Jejak penerbangan</tspan></text><text font-family="Liberation Sans,sans-serif" font-weight="normal" font-size="41" transform="translate(107.322 786)" id="trsvg42-tl" systemLanguage="tl"><tspan id="trsvg22-tl">Buga ng eroplano</tspan></text><text font-family="Liberation Sans,sans-serif" font-weight="400" font-size="41" transform="translate(107.322 786)" id="trsvg42"><tspan id="trsvg22">Aviation contrails</tspan></text></switch></g></g></svg>
